<svg width="280" height="54" viewBox="0 0 280 54" fill="none" xmlns="http://www.w3.org/2000/svg">
<path d="M52.2683 0H0V54H52.2683V0Z" fill="#5556AD"/>
<path d="M42.2811 5.54424H4.89439V43.6868H42.2811V5.54424Z" fill="#36865A"/>
<path d="M47.0832 10.6576H9.69652V48.8002H47.0832V10.6576Z" fill="#F5F5F5"/>
<path d="M31.8779 48.6145V32.3081H47.6211" fill="#E35549"/>
<path d="M49.8577 28.7345V51.3208H28.054" fill="#5556AD"/>
<path d="M69.1167 44.6694V9.33055H89.2686V15.4896H75.0624V22.6584H86.9294V28.8174H75.0624V44.6694H69.1167Z" fill="#5556AD"/>
<path d="M90.6534 35.3299V19.4274H96.5991V33.7144C96.5991 34.7072 96.8346 35.616 97.3057 36.4405C97.7768 37.2483 98.4023 37.8962 99.182 38.3842C99.978 38.8554 100.847 39.091 101.789 39.091C102.764 39.091 103.641 38.8554 104.421 38.3842C105.201 37.8962 105.826 37.2483 106.297 36.4405C106.768 35.616 107.004 34.7072 107.004 33.7144V19.4274H112.95L112.974 44.6694H107.028L107.004 42.3724C106.159 43.2811 105.16 44.0047 104.007 44.5432C102.853 45.0649 101.619 45.3257 100.303 45.3257C98.5322 45.3257 96.9159 44.8798 95.4538 43.9879C93.9918 43.0792 92.8221 41.876 91.9449 40.3783C91.0839 38.8638 90.6534 37.181 90.6534 35.3299Z" fill="#5556AD"/>
<path d="M117.995 44.6694V6.80634H123.94V44.6694H117.995Z" fill="#5556AD"/>
<path d="M129.798 44.6694V6.80634H135.743V44.6694H129.798Z" fill="#5556AD"/>
<path d="M148.789 45.1238C147.522 45.0397 146.295 44.7788 145.109 44.3413C143.94 43.8869 142.9 43.2727 141.99 42.4986C141.081 41.7245 140.382 40.799 139.895 39.722L144.915 37.5007C145.109 37.8373 145.426 38.1991 145.865 38.5861C146.303 38.9563 146.823 39.2676 147.424 39.5201C148.042 39.7725 148.716 39.8987 149.447 39.8987C150.064 39.8987 150.649 39.8146 151.201 39.6463C151.77 39.4612 152.225 39.1835 152.566 38.8133C152.923 38.4431 153.102 37.9635 153.102 37.3745C153.102 36.7519 152.891 36.2723 152.468 35.9357C152.062 35.5823 151.542 35.3215 150.909 35.1532C150.292 34.9681 149.691 34.7998 149.106 34.6483C147.562 34.3286 146.125 33.8322 144.793 33.1591C143.477 32.4859 142.413 31.6193 141.601 30.5591C140.805 29.4821 140.407 28.1864 140.407 26.6719C140.407 25.0059 140.829 23.5671 141.674 22.3555C142.535 21.1438 143.647 20.2099 145.012 19.5536C146.393 18.8973 147.879 18.5691 149.471 18.5691C151.404 18.5691 153.175 18.9898 154.783 19.8313C156.408 20.6558 157.691 21.8254 158.633 23.3399L153.93 26.2175C153.703 25.8136 153.386 25.4434 152.98 25.1068C152.574 24.7535 152.111 24.4674 151.591 24.2486C151.071 24.013 150.527 23.8784 149.959 23.8447C149.228 23.8111 148.562 23.8784 147.96 24.0467C147.359 24.215 146.872 24.501 146.498 24.9049C146.141 25.3088 145.962 25.8473 145.962 26.5204C145.962 27.1599 146.206 27.6395 146.693 27.9592C147.181 28.2621 147.766 28.4977 148.448 28.666C149.146 28.8343 149.812 29.0194 150.446 29.2213C151.875 29.7093 153.216 30.3067 154.467 31.0135C155.734 31.7203 156.749 32.5869 157.513 33.6134C158.276 34.6399 158.642 35.8684 158.609 37.2988C158.609 38.9311 158.138 40.3615 157.196 41.5899C156.254 42.8015 155.035 43.7271 153.541 44.3665C152.062 45.006 150.478 45.2584 148.789 45.1238Z" fill="#5556AD"/>
<path d="M177.506 37.0716L182.867 40.0754C181.746 41.6572 180.341 42.9277 178.652 43.8869C176.962 44.8461 175.118 45.3257 173.12 45.3257C170.878 45.3257 168.832 44.7283 166.98 43.5336C165.144 42.3388 163.674 40.7401 162.569 38.7376C161.481 36.7182 160.937 34.4885 160.937 32.0484C160.937 30.1973 161.253 28.4725 161.887 26.8738C162.52 25.2583 163.39 23.8447 164.494 22.6331C165.615 21.4047 166.915 20.4455 168.393 19.7555C169.871 19.0656 171.447 18.7206 173.12 18.7206C175.118 18.7206 176.962 19.2002 178.652 20.1594C180.341 21.1186 181.746 22.4059 182.867 24.0214L177.506 27C176.938 26.3269 176.264 25.8052 175.484 25.435C174.72 25.0648 173.933 24.8797 173.12 24.8797C171.951 24.8797 170.895 25.2162 169.952 25.8893C169.01 26.5456 168.263 27.4207 167.711 28.5145C167.158 29.5915 166.882 30.7695 166.882 32.0484C166.882 33.3105 167.158 34.4885 167.711 35.5823C168.263 36.6593 169.01 37.5259 169.952 38.1822C170.895 38.8385 171.951 39.1667 173.12 39.1667C173.965 39.1667 174.769 38.9816 175.533 38.6114C176.296 38.2243 176.954 37.7111 177.506 37.0716Z" fill="#5556AD"/>
<path d="M187.266 44.6694L187.242 19.4274H193.188L193.212 21.6739C194.041 20.7652 195.031 20.05 196.185 19.5283C197.338 18.9898 198.581 18.7206 199.913 18.7206C200.807 18.7206 201.7 18.8552 202.594 19.1245L200.254 25.334C199.637 25.0816 199.02 24.9554 198.402 24.9554C197.444 24.9554 196.567 25.1994 195.771 25.6874C194.991 26.1586 194.365 26.8065 193.894 27.6311C193.439 28.4388 193.212 29.3391 193.212 30.332V44.6694H187.266Z" fill="#5556AD"/>
<path d="M214.907 45.3257C212.665 45.3257 210.618 44.7283 208.766 43.5336C206.93 42.3388 205.46 40.7317 204.356 38.7123C203.267 36.693 202.723 34.4632 202.723 32.0232C202.723 30.1889 203.04 28.4725 203.673 26.8738C204.307 25.2583 205.176 23.8447 206.281 22.6331C207.402 21.4047 208.701 20.4455 210.179 19.7555C211.658 19.0656 213.234 18.7206 214.907 18.7206C216.807 18.7206 218.546 19.1413 220.121 19.9827C221.713 20.8073 223.062 21.9432 224.166 23.3904C225.271 24.8376 226.075 26.4867 226.579 28.3378C227.082 30.1889 227.196 32.1241 226.92 34.1435H209.107C209.335 35.0859 209.708 35.9357 210.228 36.693C210.748 37.4334 211.406 38.0308 212.202 38.4851C212.998 38.9227 213.9 39.1498 214.907 39.1667C215.946 39.1835 216.889 38.9311 217.733 38.4094C218.594 37.8709 219.309 37.1473 219.878 36.2386L225.945 37.7026C224.954 39.9408 223.476 41.775 221.51 43.2054C219.545 44.619 217.343 45.3257 214.907 45.3257ZM208.912 29.5242H220.901C220.722 28.5145 220.341 27.6058 219.756 26.7981C219.187 25.9735 218.481 25.3172 217.636 24.8292C216.791 24.3412 215.881 24.0972 214.907 24.0972C213.932 24.0972 213.03 24.3412 212.202 24.8292C211.373 25.3004 210.667 25.9482 210.082 26.7728C209.513 27.5806 209.124 28.4977 208.912 29.5242Z" fill="#5556AD"/>
<path d="M241.701 45.3257C239.46 45.3257 237.413 44.7283 235.561 43.5336C233.725 42.3388 232.255 40.7317 231.15 38.7123C230.062 36.693 229.518 34.4632 229.518 32.0232C229.518 30.1889 229.835 28.4725 230.468 26.8738C231.102 25.2583 231.971 23.8447 233.075 22.6331C234.196 21.4047 235.496 20.4455 236.974 19.7555C238.453 19.0656 240.028 18.7206 241.701 18.7206C243.602 18.7206 245.34 19.1413 246.916 19.9827C248.508 20.8073 249.856 21.9432 250.961 23.3904C252.066 24.8376 252.87 26.4867 253.374 28.3378C253.877 30.1889 253.991 32.1241 253.715 34.1435H235.902C236.129 35.0859 236.503 35.9357 237.023 36.693C237.543 37.4334 238.201 38.0308 238.997 38.4851C239.793 38.9227 240.694 39.1498 241.701 39.1667C242.741 39.1835 243.683 38.9311 244.528 38.4094C245.389 37.8709 246.104 37.1473 246.672 36.2386L252.74 37.7026C251.749 39.9408 250.271 41.775 248.305 43.2054C246.339 44.619 244.138 45.3257 241.701 45.3257ZM235.707 29.5242H247.696C247.517 28.5145 247.135 27.6058 246.551 26.7981C245.982 25.9735 245.275 25.3172 244.431 24.8292C243.586 24.3412 242.676 24.0972 241.701 24.0972C240.727 24.0972 239.825 24.3412 238.997 24.8292C238.168 25.3004 237.462 25.9482 236.877 26.7728C236.308 27.5806 235.918 28.4977 235.707 29.5242Z" fill="#5556AD"/>
<path d="M280 28.7165V44.6694H274.054V30.332C274.054 29.3391 273.819 28.4388 273.348 27.6311C272.877 26.8065 272.243 26.1586 271.447 25.6874C270.667 25.1994 269.798 24.9554 268.84 24.9554C267.881 24.9554 267.004 25.1994 266.208 25.6874C265.428 26.1586 264.803 26.8065 264.332 27.6311C263.877 28.4388 263.649 29.3391 263.649 30.332V44.6694H257.704L257.679 19.4274H263.625L263.649 21.6739C264.478 20.7652 265.469 20.05 266.622 19.5283C267.776 18.9898 269.018 18.7206 270.35 18.7206C272.121 18.7206 273.738 19.175 275.2 20.0837C276.662 20.9756 277.823 22.1788 278.684 23.6933C279.561 25.191 280 26.8654 280 28.7165Z" fill="#5556AD"/>
</svg>
