<svg width="885" height="164" viewBox="0 0 885 164" fill="none" xmlns="http://www.w3.org/2000/svg">
<path d="M165.205 0H0V164H165.205V0Z" fill="#5556AD"/>
<path d="M133.639 16.8381H15.4698V132.678H133.639V16.8381Z" fill="#36865A"/>
<path d="M148.817 32.3676H30.6479V148.208H148.817V32.3676Z" fill="#F5F5F5"/>
<path d="M100.757 147.644V98.121H150.517" fill="#E35549"/>
<path d="M157.586 87.2678V155.863H88.6706" fill="#5556AD"/>
<path d="M218.458 135.663V28.3372H282.153V47.0425H237.251V68.8143H274.759V87.5196H237.251V135.663H218.458Z" fill="#5556AD"/>
<path d="M286.53 107.298V59.0017H305.322V102.392C305.322 105.407 306.067 108.167 307.556 110.671C309.045 113.124 311.021 115.092 313.486 116.574C316.002 118.005 318.749 118.721 321.727 118.721C324.808 118.721 327.58 118.005 330.045 116.574C332.51 115.092 334.487 113.124 335.976 110.671C337.465 108.167 338.209 105.407 338.209 102.392V59.0017H357.002L357.079 135.663H338.286L338.209 128.687C335.539 131.446 332.381 133.644 328.736 135.279C325.09 136.864 321.188 137.656 317.029 137.656C311.432 137.656 306.323 136.302 301.702 133.593C297.081 130.833 293.384 127.179 290.611 122.63C287.89 118.031 286.53 112.92 286.53 107.298Z" fill="#5556AD"/>
<path d="M372.947 135.663V20.6711H391.74V135.663H372.947Z" fill="#5556AD"/>
<path d="M410.253 135.663V20.6711H429.045V135.663H410.253Z" fill="#5556AD"/>
<path d="M470.279 137.043C466.274 136.787 462.398 135.995 458.65 134.666C454.953 133.286 451.667 131.421 448.791 129.07C445.916 126.719 443.708 123.908 442.168 120.637L458.033 113.891C458.65 114.913 459.651 116.012 461.037 117.187C462.423 118.312 464.067 119.257 465.966 120.024C467.917 120.791 470.048 121.174 472.359 121.174C474.31 121.174 476.158 120.918 477.904 120.407C479.701 119.845 481.139 119.002 482.217 117.877C483.347 116.753 483.912 115.296 483.912 113.508C483.912 111.617 483.244 110.16 481.909 109.138C480.626 108.065 478.982 107.273 476.98 106.762C475.029 106.199 473.129 105.688 471.281 105.228C466.403 104.257 461.859 102.75 457.648 100.705C453.489 98.661 450.126 96.029 447.559 92.8092C445.043 89.5383 443.785 85.6031 443.785 81.0034C443.785 75.9438 445.12 71.5741 447.79 67.8943C450.511 64.2146 454.028 61.3782 458.341 59.385C462.706 57.3918 467.404 56.3952 472.436 56.3952C478.546 56.3952 484.143 57.6729 489.226 60.2282C494.361 62.7325 498.417 66.2845 501.395 70.8841L486.53 79.6235C485.811 78.3969 484.81 77.2726 483.527 76.2504C482.243 75.1772 480.78 74.3083 479.137 73.6439C477.493 72.9284 475.773 72.5196 473.976 72.4174C471.666 72.3151 469.561 72.5196 467.661 73.0306C465.761 73.5417 464.221 74.4105 463.04 75.6371C461.91 76.8637 461.345 78.4991 461.345 80.5434C461.345 82.4855 462.115 83.9421 463.656 84.9131C465.196 85.833 467.045 86.5486 469.201 87.0596C471.409 87.5707 473.514 88.1329 475.517 88.7462C480.035 90.2283 484.271 92.0426 488.225 94.1891C492.23 96.3356 495.439 98.9677 497.852 102.085C500.265 105.203 501.421 108.934 501.318 113.278C501.318 118.235 499.829 122.579 496.851 126.31C493.873 129.99 490.022 132.801 485.298 134.743C480.626 136.685 475.619 137.452 470.279 137.043Z" fill="#5556AD"/>
<path d="M561.047 112.588L577.991 121.71C574.448 126.515 570.007 130.373 564.667 133.286C559.327 136.199 553.499 137.656 547.184 137.656C540.098 137.656 533.628 135.842 527.775 132.213C521.973 128.584 517.326 123.729 513.835 117.647C510.395 111.515 508.674 104.743 508.674 97.3322C508.674 91.7104 509.676 86.4719 511.678 81.6167C513.681 76.7104 516.428 72.4174 519.919 68.7376C523.462 65.0068 527.57 62.0937 532.242 59.9983C536.915 57.9029 541.895 56.8552 547.184 56.8552C553.499 56.8552 559.327 58.3117 564.667 61.2248C570.007 64.138 574.448 68.0477 577.991 72.954L561.047 82C559.25 79.9557 557.119 78.3714 554.655 77.247C552.241 76.1226 549.751 75.5605 547.184 75.5605C543.487 75.5605 540.149 76.5826 537.171 78.6269C534.193 80.6201 531.831 83.2777 530.086 86.5997C528.34 89.8705 527.467 93.4481 527.467 97.3322C527.467 101.165 528.34 104.743 530.086 108.065C531.831 111.336 534.193 113.968 537.171 115.961C540.149 117.954 543.487 118.951 547.184 118.951C549.854 118.951 552.395 118.388 554.809 117.264C557.222 116.089 559.301 114.53 561.047 112.588Z" fill="#5556AD"/>
<path d="M591.896 135.663L591.819 59.0017H610.611L610.688 65.8245C613.307 63.0647 616.439 60.8926 620.084 59.3083C623.73 57.6729 627.658 56.8552 631.868 56.8552C634.692 56.8552 637.516 57.264 640.34 58.0817L632.947 76.9404C630.995 76.1738 629.044 75.7905 627.093 75.7905C624.064 75.7905 621.291 76.5315 618.775 78.0136C616.31 79.4446 614.334 81.4123 612.845 83.9165C611.407 86.3697 610.688 89.1039 610.688 92.1193V135.663H591.896Z" fill="#5556AD"/>
<path d="M679.259 137.656C672.173 137.656 665.704 135.842 659.85 132.213C654.048 128.584 649.401 123.704 645.91 117.571C642.47 111.438 640.75 104.666 640.75 97.2556C640.75 91.6849 641.751 86.4719 643.753 81.6167C645.756 76.7104 648.503 72.4174 651.994 68.7376C655.537 65.0068 659.645 62.0937 664.317 59.9983C668.99 57.9029 673.97 56.8552 679.259 56.8552C685.266 56.8552 690.76 58.1328 695.741 60.6882C700.773 63.1925 705.035 66.6422 708.526 71.0375C712.018 75.4327 714.559 80.4412 716.151 86.063C717.743 91.6849 718.102 97.5622 717.229 103.695H660.928C661.647 106.557 662.828 109.138 664.471 111.438C666.114 113.687 668.194 115.501 670.71 116.881C673.226 118.21 676.075 118.9 679.259 118.951C682.545 119.002 685.523 118.235 688.193 116.651C690.914 115.015 693.174 112.818 694.971 110.058L714.148 114.504C711.016 121.302 706.344 126.872 700.131 131.216C693.918 135.509 686.961 137.656 679.259 137.656ZM660.312 89.6661H698.206C697.641 86.5997 696.434 83.8399 694.586 81.3867C692.789 78.8824 690.555 76.8893 687.885 75.4071C685.215 73.925 682.34 73.184 679.259 73.184C676.178 73.184 673.328 73.925 670.71 75.4071C668.091 76.8381 665.858 78.8058 664.009 81.31C662.212 83.7632 660.98 86.5486 660.312 89.6661Z" fill="#5556AD"/>
<path d="M763.949 137.656C756.864 137.656 750.394 135.842 744.541 132.213C738.739 128.584 734.092 123.704 730.6 117.571C727.16 111.438 725.44 104.666 725.44 97.2556C725.44 91.6849 726.441 86.4719 728.444 81.6167C730.446 76.7104 733.193 72.4174 736.685 68.7376C740.228 65.0068 744.335 62.0937 749.008 59.9983C753.68 57.9029 758.661 56.8552 763.949 56.8552C769.957 56.8552 775.451 58.1328 780.431 60.6882C785.463 63.1925 789.725 66.6422 793.217 71.0375C796.708 75.4327 799.25 80.4412 800.841 86.063C802.433 91.6849 802.793 97.5622 801.92 103.695H745.619C746.338 106.557 747.519 109.138 749.162 111.438C750.805 113.687 752.884 115.501 755.4 116.881C757.916 118.21 760.766 118.9 763.949 118.951C767.236 119.002 770.214 118.235 772.884 116.651C775.605 115.015 777.864 112.818 779.661 110.058L798.839 114.504C795.707 121.302 791.034 126.872 784.822 131.216C778.609 135.509 771.651 137.656 763.949 137.656ZM745.003 89.6661H782.896C782.331 86.5997 781.125 83.8399 779.276 81.3867C777.479 78.8824 775.246 76.8893 772.576 75.4071C769.906 73.925 767.03 73.184 763.949 73.184C760.869 73.184 758.019 73.925 755.4 75.4071C752.782 76.8381 750.548 78.8058 748.7 81.31C746.903 83.7632 745.67 86.5486 745.003 89.6661Z" fill="#5556AD"/>
<path d="M885 87.2129V135.663H866.208V92.1193C866.208 89.1039 865.463 86.3697 863.974 83.9165C862.485 81.4123 860.482 79.4446 857.966 78.0136C855.502 76.5315 852.755 75.7905 849.725 75.7905C846.696 75.7905 843.923 76.5315 841.407 78.0136C838.943 79.4446 836.966 81.4123 835.477 83.9165C834.039 86.3697 833.32 89.1039 833.32 92.1193V135.663H814.528L814.451 59.0017H833.243L833.32 65.8245C835.939 63.0647 839.071 60.8926 842.717 59.3083C846.362 57.6729 850.29 56.8552 854.501 56.8552C860.097 56.8552 865.206 58.2351 869.827 60.9949C874.448 63.7035 878.12 67.3577 880.841 71.9574C883.614 76.5059 885 81.5911 885 87.2129Z" fill="#5556AD"/>
</svg>
